# xmcd CD database file
#
# Track frame offsets:
#	150
#	36007
#	62972
#	109387
#	146215
#	168195
#	183772
#
# Disc length: 2781 seconds
#
# Revision: 0
# Processed by: cddbd v1.5.1PL0 Copyright (c) Steve Scherf et al.
# Submitted via: CDex 1.50
#
DISCID=600adb07
DTITLE=William Hooker - Hard Time
DYEAR=1998
DGENRE=Jazz
TTITLE0=Computer Glasses
TTITLE1=Lincoln's Microchip
TTITLE2=Abandoned
TTITLE3=Cloning (the self)
TTITLE4=The T.V. Wall
TTITLE5=Robot Driver
TTITLE6=Slaughtered Lambs
EXTD=YEAR: 1998
EXTT0=
EXTT1=
EXTT2=
EXTT3=
EXTT4=
EXTT5=
EXTT6=
PLAYORDER=
